Coordinates
version=1
nRows=9
nColumns=40
inDegrees=yes

Units are S.I. units (second, meters, Newtons, ...)
If the header above contains a line with 'inDegrees', this indicates whether rotational values are in degrees (yes) or radians (no).

endheader
time	pelvis_tilt	pelvis_list	pelvis_rotation	pelvis_tx	pelvis_ty	pelvis_tz	hip_flexion_r	hip_adduction_r	hip_rotation_r	knee_angle_r	knee_angle_r_beta	ankle_angle_r	subtalar_angle_r	mtp_angle_r	hip_flexion_l	hip_adduction_l	hip_rotation_l	knee_angle_l	knee_angle_l_beta	ankle_angle_l	subtalar_angle_l	mtp_angle_l	lumbar_extension	lumbar_bending	lumbar_rotation	arm_flex_r	arm_add_r	arm_rot_r	elbow_flex_r	pro_sup_r	wrist_flex_r	wrist_dev_r	arm_flex_l	arm_add_l	arm_rot_l	elbow_flex_l	pro_sup_l	wrist_flex_l	wrist_dev_l
     14.27500000000000035527	     11.00236336493945543680	     -4.23981278085865831429	   -177.96234113896693429524	      0.29584994464792230273	      0.71846262295238305651	     -0.95635912652286281244	     66.58774651226146090721	    -48.24647188572487266356	     -7.06383766510738642097	     62.09987298243949283005	      1.08384724861383996419	     -0.89884994191693234900	      0.00000000000000000000	      0.00000000000000000000	     58.40342692938143898118	    -39.58926675053383803515	    -14.08657378241421653797	     58.97732165901814482822	      1.02934844695763105804	      0.94956819977277795441	      0.00000000000000000000	      0.00000000000000000000	    -64.04430271980326949688	     -0.67751701560132460145	     -3.21197762623262983439	     55.32953546059410854241	    -10.18104009614613225665	     37.25114161116680122632	      7.08291636161210824696	     37.67781128734493023558	      0.00000000000000000000	      0.00000000000000000000	     64.27668254598582109338	    -14.32154425774758088608	     44.57347053342334675108	     16.91529720295773842054	     81.17528733512905603220	      0.00000000000000000000	      0.00000000000000000000
     14.27999999999999936051	     11.19661740583412345984	     -4.06437721247850269890	   -177.74665550125587287766	      0.29615921838374142938	      0.71873767909896202344	     -0.95561482738759739863	     66.41067766693359430974	    -48.33902172660343410371	     -7.45695564112607645058	     61.94815151635286554210	      1.08119920948467540533	     -1.03264044894917317308	      0.00000000000000000000	      0.00000000000000000000	     58.86779599082763780871	    -39.35992671000495590761	    -13.55116868989971123938	     58.92141419784012157379	      1.02837267768364371001	      0.89272659999652737017	      0.00000000000000000000	      0.00000000000000000000	    -63.85978663847912883966	     -0.30817000038099878756	     -3.23006340526077728725	     55.51365938840165625834	    -10.18907217429146250254	     37.69900587162828031751	      6.80980716602858571207	     37.86744450492334124192	      0.00000000000000000000	      0.00000000000000000000	     64.07527487252424691633	    -14.09092529369520363502	     43.81544621949100104530	     16.74332121424442476609	     76.77859901955831389841	      0.00000000000000000000	      0.00000000000000000000
     14.28500000000000014211	     11.06933846316469782778	     -4.17633139016589360892	   -177.94412884534949625959	      0.29599982600831853397	      0.71983975132786737205	     -0.95597075758484839625	     66.27964107872885790584	    -48.19936739488407795307	     -7.40414008248184263294	     61.76625781723151220604	      1.07802456554637582364	     -1.03333112310004526790	      0.00000000000000000000	      0.00000000000000000000	     58.33013417239522624413	    -39.46836758453530791257	    -14.06678752962004530502	     58.70658053337488269108	      1.02462312289460055759	      0.84735881539081048253	      0.00000000000000000000	      0.00000000000000000000	    -64.09229740423825205653	     -0.57325398616267808638	     -3.17685713946842929190	     55.62303808477255984144	    -10.13265340878380804668	     36.86984351870029286147	      7.07569663102905366259	     37.18273323621239967451	      0.00000000000000000000	      0.00000000000000000000	     64.40612930366705768392	    -14.40263334230565916982	     45.23606699818109433409	     17.04030546907756260566	     80.90270511237839912155	      0.00000000000000000000	      0.00000000000000000000
     14.28999999999999914735	     11.00594689458744390720	     -4.17516088058393552984	   -177.98385013007253974138	      0.29591972369303132240	      0.72070765124642266475	     -0.95586149164521760913	     66.04793003405160334296	    -48.18962632608044316385	     -7.60160384207973915949	     61.57890270554054268359	      1.07475460197692673781	     -1.20616161826351708797	      0.00000000000000000000	      0.00000000000000000000	     58.11791910922055137689	    -39.45036237208461926684	    -14.16473147379970498605	     58.56955078493385258298	      1.02223150261112505355	      0.82094759662617133866	      0.00000000000000000000	      0.00000000000000000000	    -64.21515090544230019987	     -0.57138348826724727481	     -3.14701541767602233080	     55.63637456984870510723	    -10.17759618122740938873	     37.02559781017018991633	      7.18292096775689881127	     36.96256205553899576444	      0.00000000000000000000	      0.00000000000000000000	     64.51998943386678320167	    -14.16696983903551831929	     44.57616541954912747769	     16.66935207387400197376	     81.51282411944600880815	      0.00000000000000000000	      0.00000000000000000000
     14.29499999999999992895	     11.04752505275777529903	     -4.15077831299918642571	   -177.96530887194916203953	      0.29600965336720830301	      0.72133122332453314396	     -0.95561565889940447427	     65.88625693186686760328	    -48.15722128466475027153	     -7.76805721261306203473	     61.36487522209682055063	      1.07101911770107616206	     -1.27784536364391310137	      0.00000000000000000000	      0.00000000000000000000	     58.09354736939015850794	    -39.38185709125433220379	    -14.16654044712032423092	     58.44657155417681337894	      1.02008511012284475150	      0.81448129931424517736	      0.00000000000000000000	      0.00000000000000000000	    -64.22256543338939138721	     -0.50629975546023797683	     -3.13689692815914211721	     55.70947361813468035052	    -10.17644094193215487110	     37.03881541972400981422	      7.20302461730576393251	     36.67732030346618188332	      0.00000000000000000000	      0.00000000000000000000	     64.53012098081522651682	    -14.15401869350995589514	     44.58876695773588494376	     16.69047499372347687085	     81.29038106915997730084	      0.00000000000000000000	      0.00000000000000000000
     14.30000000000000071054	     11.08957024115401246434	     -4.14554681386653722797	   -177.99584148588911602928	      0.29606988792753091699	      0.72190673095928870051	     -0.95549363892776628671	     65.83939289603516442639	    -48.12624112656821040446	     -7.84367578172314861007	     61.24627518673709403174	      1.06894915659106715111	     -1.40455556415394067216	      0.00000000000000000000	      0.00000000000000000000	     58.03904672871694003788	    -39.35483869768481923757	    -14.21825707464800814250	     58.32966399392711309702	      1.01804468827601390934	      0.74728342761907629033	      0.00000000000000000000	      0.00000000000000000000	    -64.22190067504544686017	     -0.50975104545428573388	     -3.11362229590862638062	     55.62680483614844462181	    -10.24805449615826624665	     37.41954541378404286434	      7.25006696682296158940	     36.77345811067025493912	      0.00000000000000000000	      0.00000000000000000000	     64.59005030471237773781	    -14.16776148642147958867	     44.82960316495859132147	     16.71009087823907890424	     81.22709167249648487541	      0.00000000000000000000	      0.00000000000000000000
     14.30499999999999971578	     11.05680164578907920259	     -4.14066117210223616496	   -177.99945980055775862638	      0.29608043856321375475	      0.72264512126166391415	     -0.95526943921061513443	     65.63950014189197190717	    -48.13771672743821028462	     -8.01586517556161481934	     61.07041354260967125356	      1.06587979187307313467	     -1.50702351979427517925	      0.00000000000000000000	      0.00000000000000000000	     57.89796074622202581850	    -39.30098256945255741357	    -14.27615474684242791170	     58.21165910393732190187	      1.01598511441223826601	      0.73936325046065476396	      0.00000000000000000000	      0.00000000000000000000	    -64.29940688860909858704	     -0.47346590543809868867	     -3.08169228159157171376	     55.68694871125561007830	    -10.34190683039546776456	     37.40248814565881474437	      7.26767859098346935554	     36.97312980406574212111	      0.00000000000000000000	      0.00000000000000000000	     64.62749422852709813014	    -14.04394549553519233598	     44.83334103514523150125	     16.58069387815299933209	     80.19096437696740053980	      0.00000000000000000000	      0.00000000000000000000
     14.31000000000000049738	     11.12550309703539497264	     -4.11805042479425154056	   -178.04927422351136101497	      0.29627677862627621597	      0.72305260015315708788	     -0.95516989031219923234	     65.65984141300258158935	    -48.05078182867720215654	     -8.05135556329318191615	     60.96571654374533011378	      1.06405248452593359509	     -1.65529505821800193566	      0.00000000000000000000	      0.00000000000000000000	     57.91057736599753269502	    -39.27486871725886175000	    -14.23195077100420036231	     58.10802496452662069260	      1.01417635746205081482	      0.68010098116211836761	      0.00000000000000000000	      0.00000000000000000000	    -64.24779621314276312205	     -0.49530555826782513007	     -3.05722360117012614822	     55.74674323896940819623	    -10.30093051764625577960	     37.47655344047328185297	      7.20999352326444853389	     36.71923753171274995566	      0.00000000000000000000	      0.00000000000000000000	     64.71155900150898787615	    -14.16918108805036879971	     45.33522711591342613247	     16.72320202215286144565	     80.99493252549619626279	      0.00000000000000000000	      0.00000000000000000000
     14.31499999999999950262	     10.98215605339660605466	     -4.16506262844520058763	   -178.02659350757426182099	      0.29604714390567155036	      0.72419802333220717472	     -0.95479642136604070402	     65.25599240400653400229	    -48.14478288218924717512	     -8.30478200950019029847	     60.69492518526234903220	      1.05932628373445725245	     -1.72848433976973381299	      0.00000000000000000000	      0.00000000000000000000	     57.55199980287100203213	    -39.17930809822895099614	    -14.44575566823535872629	     57.94389919278661693625	      1.01131182235781102996	      0.71286399448668746892	      0.00000000000000000000	      0.00000000000000000000	    -64.45856461121374536560	     -0.44844981143123535672	     -3.06981451893279633225	     55.75552785165772462506	    -10.45769641035241193094	     37.54828850861780864534	      7.39542398187474336879	     37.03047276490009664940	      0.00000000000000000000	      0.00000000000000000000	     64.73169223790476678460	    -13.85421107387512762443	     44.88217528458794447488	     16.46691401285865552495	     78.57607380069434555026	      0.00000000000000000000	      0.00000000000000000000
